<svg width="52" height="51" viewBox="0 0 52 51" fill="none" xmlns="http://www.w3.org/2000/svg">
<rect x="1" width="50" height="51" rx="25" fill="white"/>
<path d="M16.0692 20.7736C15.3733 20.0144 14.1712 19.9511 13.412 20.647C12.6528 21.3429 12.5896 22.545 13.2855 23.3042L22.8386 33.6797C23.2182 34.0593 23.661 34.3123 24.1671 34.3123C24.1671 34.3123 24.1671 34.3123 24.2304 34.3123C24.7365 34.3123 25.2426 34.1225 25.559 33.7429L49.7263 9.63885C50.4855 8.87967 50.4855 7.67763 49.7263 6.98171C48.9671 6.28579 47.7651 6.22253 47.0692 6.98171L24.2937 29.694L16.0692 20.7736Z" fill="#CD3A7D"/>
<path d="M49.2815 23.3673C48.206 23.3673 47.3836 24.1898 47.3836 25.2653C47.3836 37.0326 37.7672 46.649 25.9999 46.649C14.2326 46.649 4.61623 37.0326 4.61623 25.2653C4.61623 13.4979 14.2326 3.88161 25.9999 3.88161C27.0754 3.88161 27.8979 3.05916 27.8979 1.98365C27.8979 0.908143 27.0754 0.0856934 25.9999 0.0856934C12.1448 0.0856934 0.820312 11.4102 0.820312 25.2653C0.820312 39.1204 12.1448 50.4449 25.9999 50.4449C39.855 50.4449 51.1795 39.1204 51.1795 25.2653C51.1795 24.1898 50.357 23.3673 49.2815 23.3673Z" fill="#CD3A7D"/>
</svg>
