<svg width="25" height="24" viewBox="0 0 25 24" fill="none" xmlns="http://www.w3.org/2000/svg">
<path d="M24.0514 7.05897C23.9927 5.78275 23.7888 4.91121 23.4906 4.1487C23.1879 3.34868 22.713 2.62404 22.0994 2.02508C21.497 1.41514 20.7678 0.942966 19.9629 0.64184C19.1956 0.345654 18.319 0.143134 17.035 0.0851412C15.7487 0.0265991 15.3377 0.0126953 12.062 0.0126953C8.78623 0.0126953 8.37524 0.0265991 7.08891 0.0847753C5.80497 0.143134 4.92833 0.345837 4.16103 0.642206C3.35617 0.943149 2.62714 1.41514 2.02456 2.02508C1.41094 2.62386 0.935899 3.3485 0.632951 4.14851C0.334973 4.91121 0.131228 5.78275 0.0728842 7.05879C0.0139879 8.33757 0 8.7459 0 12.0019C0 15.2582 0.0139879 15.6667 0.0728842 16.9453C0.131412 18.2213 0.335341 19.0928 0.633504 19.8555C0.936268 20.6554 1.41112 21.3802 2.02475 21.979C2.62714 22.5889 3.35635 23.0609 4.16121 23.3619C4.92833 23.6584 5.80515 23.8609 7.08909 23.9193C8.37561 23.9776 8.78641 23.9914 12.0622 23.9914C15.3379 23.9914 15.7489 23.9776 17.0352 23.9193C18.3192 23.8609 19.1958 23.6584 19.9631 23.3619C21.5833 22.7391 22.8641 21.466 23.4906 19.8555C23.789 19.0928 23.9927 18.2213 24.0514 16.9453C24.1099 15.6665 24.1239 15.2582 24.1239 12.0021C24.1239 8.7459 24.1099 8.33757 24.0514 7.05897ZM21.8802 16.847C21.8266 18.016 21.63 18.6509 21.465 19.0733C21.0591 20.119 20.2278 20.9453 19.1757 21.3487C18.7507 21.5128 18.1121 21.7082 16.936 21.7615C15.6644 21.8193 15.2829 21.8313 12.062 21.8313C8.84089 21.8313 8.45954 21.8193 7.18774 21.7615C6.01184 21.7082 5.37319 21.5128 4.94803 21.3487C4.42422 21.1565 3.95029 20.85 3.5612 20.4518C3.16052 20.065 2.85224 19.5941 2.6588 19.0733C2.49371 18.6509 2.29714 18.016 2.24358 16.847C2.18561 15.5829 2.17327 15.2036 2.17327 12.0023C2.17327 8.80078 2.18561 8.42172 2.24358 7.15739C2.29732 5.98838 2.49371 5.35357 2.6588 4.93115C2.85224 4.41031 3.16071 3.93922 3.5612 3.55248C3.95029 3.15421 4.42422 2.84778 4.94821 2.65569C5.37319 2.49141 6.01184 2.2962 7.18793 2.24278C8.45972 2.18516 8.84126 2.1729 12.062 2.1729H12.0618C15.2825 2.1729 15.664 2.18516 16.936 2.24297C18.1121 2.2962 18.7506 2.49159 19.1757 2.65569C19.6995 2.84796 20.1735 3.15439 20.5625 3.55248C20.9632 3.93922 21.2715 4.41031 21.4648 4.93115C21.63 5.35357 21.8266 5.98838 21.8802 7.15739C21.9381 8.42154 21.9505 8.80078 21.9505 12.0021C21.9505 15.2036 21.9383 15.5827 21.8802 16.847Z" fill="url(#paint0_linear)"/>
<path d="M12.065 5.8457C8.64419 5.8457 5.87109 8.60231 5.87109 12.0025C5.87109 15.4027 8.64419 18.1591 12.065 18.1591C15.4859 18.1591 18.259 15.4027 18.259 12.0025C18.259 8.60231 15.4859 5.8457 12.065 5.8457ZM12.065 15.9989C9.84457 15.9987 8.04437 14.2095 8.04455 12.0023C8.04455 9.79528 9.84457 8.00591 12.0651 8.00591C14.2857 8.00609 16.0857 9.79528 16.0857 12.0023C16.0857 14.2095 14.2855 15.9989 12.065 15.9989Z" fill="url(#paint1_linear)"/>
<path d="M19.8949 5.41493C19.8949 6.20946 19.2469 6.8536 18.4476 6.8536C17.648 6.8536 17 6.20946 17 5.41493C17 4.62022 17.648 3.97607 18.4476 3.97607C19.2469 3.97607 19.8949 4.62022 19.8949 5.41493Z" fill="url(#paint2_linear)"/>
<defs>
<linearGradient id="paint0_linear" x1="2.02444" y1="21.9791" x2="21.9784" y2="1.9044" gradientUnits="userSpaceOnUse">
<stop stop-color="#CD3A7D"/>
<stop offset="0.9997" stop-color="#CD3A7D"/>
<stop offset="0.9998" stop-color="white"/>
<stop offset="0.9999" stop-color="#CD3A7D"/>
</linearGradient>
<linearGradient id="paint1_linear" x1="7.68529" y1="16.3559" x2="16.392" y2="7.59646" gradientUnits="userSpaceOnUse">
<stop stop-color="#CD3A7D"/>
<stop offset="0.5" stop-color="#CD3A7D"/>
<stop offset="1" stop-color="#CD3A7D"/>
</linearGradient>
<linearGradient id="paint2_linear" x1="17.424" y1="6.43216" x2="19.4586" y2="4.38526" gradientUnits="userSpaceOnUse">
<stop stop-color="#CD3A7D"/>
<stop offset="1" stop-color="#CD3A7D"/>
</linearGradient>
</defs>
</svg>
