<svg width="86" height="14" viewBox="0 0 86 14" fill="none" xmlns="http://www.w3.org/2000/svg">
<path d="M13.9528 5.25031C13.8393 4.88437 13.5382 4.61927 13.1754 4.56374L9.50104 4.00415L7.85769 0.518107C7.53339 -0.1714 6.45686 -0.1714 6.13256 0.518107L4.48921 4.00415L0.823596 4.56374C0.460916 4.61911 0.15979 4.88529 0.0471634 5.25031C-0.0663492 5.61625 0.0288597 6.01653 0.291607 6.28364L2.94904 8.99047L2.32273 12.8214C2.26118 13.1994 2.40938 13.5825 2.70563 13.8084C3.00292 14.0332 3.39542 14.0625 3.71972 13.884L6.99476 12.0744L10.2795 13.884C10.4201 13.9616 10.574 14 10.7269 14C10.9261 14 11.1252 13.9355 11.2947 13.8085C11.5911 13.5816 11.7391 13.1996 11.6776 12.8216L11.0512 8.99063L13.7087 6.2838C13.9711 6.01746 14.0663 5.61532 13.9528 5.25031Z" fill="#CD3A7D"/>
<path d="M31.9528 5.25031C31.8393 4.88437 31.5382 4.61927 31.1754 4.56374L27.5011 4.00415L25.8578 0.518107C25.5335 -0.1714 24.4569 -0.1714 24.1326 0.518107L22.4893 4.00415L18.8236 4.56374C18.4609 4.61911 18.1598 4.88529 18.0472 5.25031C17.9337 5.61625 18.0289 6.01653 18.2916 6.28364L20.949 8.99047L20.3227 12.8214C20.2612 13.1994 20.4094 13.5836 20.7056 13.8084C21.002 14.0332 21.3964 14.0625 21.7197 13.884L24.9947 12.0744L28.2794 13.884C28.42 13.9616 28.5739 14 28.7268 14C28.926 14 29.1251 13.9355 29.2945 13.8085C29.5909 13.5816 29.739 13.1996 29.6774 12.8216L29.0511 8.99063L31.7085 6.2838C31.9711 6.01746 32.0663 5.61532 31.9528 5.25031Z" fill="#CD3A7D"/>
<path d="M49.9528 5.25031C49.8393 4.88437 49.5382 4.61927 49.1754 4.56374L45.501 4.00415L43.8577 0.518107C43.5334 -0.1714 42.4569 -0.1714 42.1326 0.518107L40.4893 4.00415L36.8236 4.56374C36.4609 4.61911 36.1598 4.88529 36.0472 5.25031C35.9337 5.61625 36.0289 6.01653 36.2916 6.28364L38.949 8.99047L38.3227 12.8214C38.2611 13.1994 38.4093 13.5836 38.7056 13.8084C39.002 14.0332 39.3964 14.0625 39.7196 13.884L42.9948 12.0744L46.2795 13.884C46.42 13.9616 46.5739 14 46.7269 14C46.926 14 47.1251 13.9355 47.2946 13.8085C47.591 13.5816 47.739 13.1996 47.6775 12.8216L47.0512 8.99063L49.7085 6.2838C49.9711 6.01746 50.0663 5.61532 49.9528 5.25031Z" fill="#CD3A7D"/>
<path d="M67.9528 5.24918C67.8393 4.88323 67.5382 4.61814 67.1754 4.56261L63.5011 4.00302L61.8578 0.51713C61.5335 -0.172377 60.4569 -0.172377 60.1326 0.51713L58.4893 4.00318L54.8236 4.56276C54.4609 4.61813 54.1598 4.88432 54.0472 5.24933C53.9337 5.61528 54.0289 6.01556 54.2916 6.28267L56.949 8.9895L56.3227 12.8205C56.2612 13.1985 56.4094 13.5816 56.7056 13.8074C57.0029 14.0323 57.3964 14.0615 57.7197 13.883L60.9948 12.0734L64.2796 13.883C64.4201 13.9607 64.5741 13.999 64.727 13.999C64.9261 13.999 65.1252 13.9345 65.2947 13.8075C65.5911 13.5806 65.7391 13.1986 65.6776 12.8206L65.0513 8.98965L67.7087 6.28282C67.9711 6.01741 68.0663 5.61419 67.9528 5.24918Z" fill="#CD3A7D"/>
<path d="M85.9528 5.24918C85.8393 4.88323 85.5382 4.61814 85.1754 4.56261L81.5011 4.00302L79.8578 0.51713C79.5335 -0.172377 78.4569 -0.172377 78.1326 0.51713L76.4893 4.00318L72.8236 4.56276C72.4609 4.61813 72.1598 4.88432 72.0472 5.24933C71.9337 5.61528 72.0289 6.01556 72.2916 6.28267L74.949 8.9895L74.3227 12.8205C74.2612 13.1985 74.4094 13.5816 74.7056 13.8074C75.0029 14.0323 75.3964 14.0615 75.7197 13.883L78.9948 12.0734L82.2796 13.883C82.4201 13.9607 82.5741 13.999 82.727 13.999C82.9261 13.999 83.1252 13.9345 83.2947 13.8075C83.5911 13.5806 83.7391 13.1986 83.6776 12.8206L83.0513 8.98965L85.7087 6.28282C85.9711 6.01741 86.0663 5.61419 85.9528 5.24918Z" fill="#CD3A7D"/>
</svg>
