<svg width="86" height="14" viewBox="0 0 86 14" fill="none" xmlns="http://www.w3.org/2000/svg">
<path d="M14.4124 5.25062C14.2951 4.88469 13.9841 4.61959 13.6093 4.56407L9.81396 4.0045L8.11649 0.518577C7.78151 -0.170906 6.66953 -0.170906 6.33455 0.518577L4.63707 4.0045L0.850722 4.56407C0.476097 4.61944 0.165053 4.88561 0.0487168 5.25062C-0.0685345 5.61655 0.0298102 6.01681 0.301211 6.28391L3.04617 8.99065L2.39923 12.8215C2.33565 13.1995 2.48873 13.5826 2.79474 13.8084C3.10182 14.0332 3.50725 14.0625 3.84223 13.884L7.22514 12.0745L10.6181 13.884C10.7633 13.9616 10.9223 14 11.0802 14C11.2859 14 11.4916 13.9355 11.6667 13.8085C11.9728 13.5816 12.1258 13.1996 12.0622 12.8216L11.4152 8.9908L14.1602 6.28407C14.4313 6.01774 14.5296 5.61562 14.4124 5.25062Z" fill="#CD3A7D"/>
<path d="M32.2952 5.25062C32.1779 4.88469 31.8669 4.61959 31.4921 4.56407L27.6968 4.0045L25.9994 0.518577C25.6644 -0.170906 24.5524 -0.170906 24.2174 0.518577L22.52 4.0045L18.7335 4.56407C18.3589 4.61944 18.0479 4.88561 17.9315 5.25062C17.8143 5.61655 17.9126 6.01681 18.184 6.28391L20.929 8.99065L20.282 12.8215C20.2184 13.1995 20.3715 13.5836 20.6775 13.8084C20.9837 14.0332 21.3911 14.0625 21.725 13.884L25.1079 12.0745L28.5008 13.884C28.646 13.9616 28.805 14 28.9629 14C29.1686 14 29.3743 13.9355 29.5494 13.8085C29.8555 13.5816 30.0084 13.1996 29.9449 12.8216L29.2979 8.9908L32.0429 6.28407C32.3141 6.01774 32.4124 5.61562 32.2952 5.25062Z" fill="#CD3A7D"/>
<path d="M50.1858 5.25062C50.0686 4.88469 49.7575 4.61959 49.3828 4.56407L45.5874 4.0045L43.8899 0.518577C43.5549 -0.170906 42.443 -0.170906 42.108 0.518577L40.4106 4.0045L36.6241 4.56407C36.2495 4.61944 35.9385 4.88561 35.8222 5.25062C35.7049 5.61655 35.8032 6.01681 36.0746 6.28391L38.8195 8.99065L38.1726 12.8215C38.109 13.1995 38.2621 13.5836 38.5681 13.8084C38.8743 14.0332 39.2817 14.0625 39.6156 13.884L42.9986 12.0745L46.3915 13.884C46.5366 13.9616 46.6956 14 46.8536 14C47.0593 14 47.265 13.9355 47.44 13.8085C47.7462 13.5816 47.8991 13.1996 47.8355 12.8216L47.1886 8.9908L49.9335 6.28407C50.2047 6.01774 50.3031 5.61562 50.1858 5.25062Z" fill="#CD3A7D"/>
<path d="M68.0686 5.24918C67.9514 4.88323 67.6403 4.61814 67.2656 4.56261L63.4703 4.00302L61.7728 0.51713C61.4378 -0.172377 60.3259 -0.172377 59.9909 0.51713L58.2934 4.00318L54.507 4.56276C54.1323 4.61813 53.8213 4.88432 53.705 5.24933C53.5877 5.61528 53.6861 6.01556 53.9575 6.28267L56.7024 8.9895L56.0555 12.8205C55.9919 13.1985 56.145 13.5816 56.451 13.8074C56.758 14.0323 57.1645 14.0615 57.4984 13.883L60.8815 12.0734L64.2744 13.883C64.4195 13.9607 64.5786 13.999 64.7365 13.999C64.9422 13.999 65.1479 13.9345 65.3229 13.8075C65.6291 13.5806 65.782 13.1986 65.7184 12.8206L65.0715 8.98965L67.8164 6.28282C68.0875 6.01741 68.1859 5.61419 68.0686 5.24918Z" fill="#CD3A7D"/>
<path d="M85.9514 5.25052C85.8342 4.88458 85.5232 4.61949 85.1484 4.56396L81.3531 4.00455L79.6556 0.518583C79.3206 -0.170908 78.2087 -0.170908 77.8737 0.518583L76.1762 4.00455L72.3898 4.56396C72.0152 4.61949 71.7041 4.88551 71.5878 5.25052C71.4705 5.61645 71.5689 6.01672 71.8403 6.28383L74.5852 8.99059L73.9383 12.8215C73.8747 13.1995 74.0278 13.5826 74.3338 13.8084C74.6409 14.0331 75.0473 14.0625 75.3813 13.884L78.7643 12.0744L82.1572 13.884C82.3024 13.9616 82.4614 14 82.6193 14C82.825 14 83.0307 13.9355 83.2058 13.8085C83.5119 13.5816 83.6648 13.1996 83.6013 12.8216L82.9543 8.99075L85.6993 6.28398C85.9704 6.01765 86.0687 5.61537 85.9514 5.25052ZM81.191 7.91491C80.9565 8.14675 80.8481 8.48051 80.9037 8.80809L81.2993 11.1489L79.2252 10.0431C79.0811 9.96544 78.9221 9.92708 78.7631 9.92708C78.604 9.92708 78.445 9.96544 78.3009 10.0431L76.2378 11.146L76.6333 8.80825C76.689 8.48067 76.5807 8.14597 76.3461 7.91506L74.6726 6.2648L76.9791 5.92408C77.3021 5.87675 77.5814 5.66996 77.7266 5.3727L78.7631 3.24252L79.7996 5.3727C79.9447 5.67105 80.2239 5.87675 80.5479 5.92408L82.8635 6.26588L81.191 7.91491Z" fill="#CD3A7D"/>
</svg>
