<svg width="90" height="87" viewBox="0 0 90 87" fill="none" xmlns="http://www.w3.org/2000/svg">
<g clip-path="url(#clip0)">
<path d="M90.0008 61.5C90.0008 75.583 78.1901 87 63.6215 87C49.0529 87 37.2422 75.583 37.2422 61.5C37.2422 47.417 49.0529 36 63.6215 36C78.1901 36 90.0008 47.417 90.0008 61.5Z" fill="#4C8056"/>
<path d="M52.7586 61.5C52.7586 75.583 40.9479 87 26.3793 87C11.8107 87 0 75.583 0 61.5C0 47.417 11.8107 36 26.3793 36C40.9479 36 52.7586 47.417 52.7586 61.5Z" fill="#F9EAB0"/>
<path d="M71.3797 25.5C71.3797 39.583 59.569 51 45.0004 51C30.4318 51 18.6211 39.583 18.6211 25.5C18.6211 11.417 30.4318 0 45.0004 0C59.569 0 71.3797 11.417 71.3797 25.5Z" fill="#CD3A7D"/>
</g>
<defs>
<clipPath id="clip0">
<rect width="90" height="87" fill="white"/>
</clipPath>
</defs>
</svg>
