<svg width="90" height="87" viewBox="0 0 90 87" fill="none" xmlns="http://www.w3.org/2000/svg">
<path d="M45.6221 36.1417C34.0002 24.9085 21.2566 19.0137 17.1572 22.975C16.7074 23.4305 16.3764 23.9829 16.1916 24.5868L16.1256 24.523L12.2107 40.0319L8.31218 55.4945L3.69099 73.8038L0.765625 85.3993L18.0854 79.0638L40.1148 71.0064L57.6894 64.5781L57.6685 64.5578C58.2568 64.3765 58.7951 64.0688 59.2428 63.6577C63.3422 59.695 57.2441 47.3762 45.6221 36.1417Z" fill="#CD3A7D"/>
<path d="M45.6249 36.1371C34.0033 24.903 21.2594 19.0079 17.1606 22.9702C13.0617 26.9324 19.16 39.2515 30.7816 50.4857C42.4031 61.7198 55.147 67.6149 59.2459 63.6526C63.3447 59.6904 57.2464 47.3713 45.6249 36.1371Z" fill="#F9EAB0"/>
<path d="M56.0941 65.0796C53.9956 65.1151 51.9137 64.7158 49.9885 63.9084L35.624 69.1627L13.5871 77.2128L1.77023 81.535L0.765625 85.5166L18.0854 79.1812L40.1148 71.1237L56.244 65.2245L56.0941 65.0796Z" fill="#CD3A7D"/>
<path d="M74.2375 53.6291C74.0579 53.6285 73.8799 53.5975 73.7112 53.5378C66.0992 50.7811 57.871 50.0082 49.8525 51.2969L44.4966 52.1593C43.6768 52.2724 42.9173 51.7216 42.8004 50.9291C42.6873 50.1635 43.2161 49.4469 44.0018 49.3011L49.3592 48.4314C57.8972 47.06 66.6581 47.8824 74.7638 50.8157C75.5431 51.0864 75.9478 51.9166 75.6677 52.6699C75.4514 53.2519 74.8772 53.637 74.2375 53.6291Z" fill="#4C8056"/>
<path d="M47.2484 44.9324C46.4204 44.9277 45.753 44.2749 45.7578 43.4745C45.7612 42.9219 46.0892 42.4193 46.6037 42.1785L78.0914 27.6841C78.8393 27.3399 79.734 27.6468 80.0902 28.3697C80.4463 29.0926 80.1288 29.9576 79.3809 30.3018L47.8932 44.7962C47.6915 44.8873 47.4713 44.9339 47.2484 44.9324Z" fill="#CD3A7D"/>
<path d="M29.7133 42.0336C29.5155 42.034 29.3197 41.9961 29.1375 41.922C28.3732 41.6138 28.012 40.7652 28.3308 40.0264V40.0262L30.5109 34.9691C33.8653 27.221 34.6475 18.657 32.7496 10.4606C32.555 9.68242 33.05 8.89937 33.8548 8.7113C34.6598 8.52324 35.4699 9.00173 35.6644 9.77972C35.6687 9.79693 35.6727 9.81414 35.6764 9.83153C37.7096 18.6117 36.8713 27.7855 33.2774 36.0852L31.0957 41.1422C30.8629 41.6816 30.3179 42.0331 29.7133 42.0336Z" fill="#4FBA6F"/>
<path d="M81.7332 59.4269C83.3894 59.4269 84.732 58.129 84.732 56.528C84.732 54.927 83.3894 53.6292 81.7332 53.6292C80.077 53.6292 78.7344 54.927 78.7344 56.528C78.7344 58.129 80.077 59.4269 81.7332 59.4269Z" fill="#CD3A7D"/>
<path d="M45.7488 18.8427C47.4051 18.8427 48.7477 17.5448 48.7477 15.9438C48.7477 14.3428 47.4051 13.0449 45.7488 13.0449C44.0926 13.0449 42.75 14.3428 42.75 15.9438C42.75 17.5448 44.0926 18.8427 45.7488 18.8427Z" fill="#CD3A7D"/>
<path d="M32.2527 5.79774C30.5964 5.79774 29.2539 4.49995 29.2539 2.89887C29.2539 1.29779 30.5964 0 32.2527 0C33.909 0 35.2516 1.29779 35.2516 2.89887C35.2516 4.49995 33.909 5.79774 32.2527 5.79774Z" fill="#4C8056"/>
<path d="M74.2377 11.5954C73.4096 11.5954 72.7383 10.9464 72.7383 10.1459V8.69651C72.7383 7.89606 73.4096 7.24707 74.2377 7.24707C75.0658 7.24707 75.7371 7.89606 75.7371 8.69651V10.1459C75.7371 10.9464 75.0659 11.5954 74.2377 11.5954Z" fill="#4C8056"/>
<path d="M74.2377 4.34831C73.4096 4.34831 72.7383 3.69932 72.7383 2.89887V1.44944C72.7383 0.648985 73.4096 0 74.2377 0C75.0658 0 75.7371 0.648985 75.7371 1.44944V2.89887C75.7371 3.69932 75.0659 4.34831 74.2377 4.34831Z" fill="#4C8056"/>
<path d="M78.7332 7.24726H77.2338C76.4057 7.24726 75.7344 6.59827 75.7344 5.79782C75.7344 4.99737 76.4057 4.34839 77.2338 4.34839H78.7332C79.5613 4.34839 80.2326 4.99737 80.2326 5.79782C80.2326 6.59827 79.5614 7.24726 78.7332 7.24726Z" fill="#4C8056"/>
<path d="M71.2371 7.24726H69.7377C68.9096 7.24726 68.2383 6.59827 68.2383 5.79782C68.2383 4.99737 68.9096 4.34839 69.7377 4.34839H71.2371C72.0652 4.34839 72.7365 4.99737 72.7365 5.79782C72.7365 6.59827 72.0654 7.24726 71.2371 7.24726Z" fill="#4C8056"/>
<path d="M12.6722 42.0334C12.5043 41.4131 12.3543 40.7869 12.2149 40.1492L8.31641 55.6117L8.61629 59.1469C9.26985 66.6838 12.6192 73.765 18.0881 79.1738L40.119 71.1236C39.9991 71.0874 39.8746 71.0613 39.7547 71.0221C26.3958 66.1801 16.2985 55.372 12.6722 42.0334Z" fill="#4FBA6F"/>
<path d="M40.1178 71.1238C39.9978 71.0876 39.8734 71.0615 39.7534 71.0224C38.3102 70.4942 36.8966 69.8929 35.5191 69.2207L15.6758 76.478C16.4281 77.4212 17.2335 78.3237 18.0883 79.1812L40.1178 71.1238Z" fill="#4C8056"/>
<path d="M63.7434 17.3628V24.6404H56.2148V17.3628H63.7434Z" fill="#4FBA6F"/>
<path d="M36.7529 43.4833C35.9249 43.4831 35.2537 42.8339 35.2539 42.0335C35.2541 41.6229 35.4342 41.2317 35.7498 40.9569L50.744 27.912C51.3702 27.3882 52.3171 27.4543 52.8589 28.0596C53.3858 28.6481 53.3378 29.5337 52.7502 30.0658L37.7561 43.1108C37.4809 43.3505 37.1235 43.4831 36.7529 43.4833Z" fill="#4C8056"/>
<path d="M80.2338 37.6855C79.4057 37.6855 78.7344 37.0365 78.7344 36.236V34.7866C78.7344 33.9861 79.4057 33.3372 80.2338 33.3372C81.0619 33.3372 81.7332 33.9861 81.7332 34.7866V36.236C81.7332 37.0365 81.062 37.6855 80.2338 37.6855Z" fill="#4FBA6F"/>
<path d="M85.5372 35.562C85.1393 35.5631 84.7575 35.4102 84.4771 35.1373L83.417 34.1126C82.8418 33.5368 82.8581 32.6191 83.4538 32.0631C84.0348 31.5206 84.956 31.5206 85.5372 32.0631L86.5973 33.0878C87.1828 33.654 87.1826 34.5717 86.5969 35.1377C86.316 35.4093 85.9347 35.562 85.5372 35.562Z" fill="#4FBA6F"/>
<path d="M87.7332 30.4382H86.2338C85.4057 30.4382 84.7344 29.7892 84.7344 28.9887C84.7344 28.1883 85.4057 27.5393 86.2338 27.5393H87.7332C88.5613 27.5393 89.2326 28.1883 89.2326 28.9887C89.2326 29.7892 88.5615 30.4382 87.7332 30.4382Z" fill="#4FBA6F"/>
<path d="M84.4756 26.339C83.6476 26.3388 82.9764 25.6898 82.9766 24.8892C82.9766 24.5049 83.1346 24.1364 83.4155 23.8648L84.4756 22.8401C85.0713 22.2839 86.0204 22.2998 86.5958 22.8756C87.157 23.4372 87.157 24.3277 86.5958 24.8896L85.5357 25.9143C85.2546 26.1861 84.8733 26.339 84.4756 26.339Z" fill="#4FBA6F"/>
<path d="M80.2338 24.6405C79.4057 24.6405 78.7344 23.9916 78.7344 23.1911V21.7417C78.7344 20.9412 79.4057 20.2922 80.2338 20.2922C81.0619 20.2922 81.7332 20.9412 81.7332 21.7417V23.1911C81.7332 23.9916 81.062 24.6405 80.2338 24.6405Z" fill="#4FBA6F"/>
<path d="M75.9942 26.3391C75.5965 26.3391 75.2153 26.1862 74.9341 25.9144L73.8741 24.8897C73.2988 24.3139 73.3151 23.3962 73.9108 22.8402C74.4918 22.2977 75.413 22.2977 75.9942 22.8402L77.0543 23.8649C77.6398 24.4311 77.6396 25.3488 77.0539 25.9148C76.773 26.1864 76.3918 26.3391 75.9942 26.3391Z" fill="#4FBA6F"/>
<path d="M8.2627 1.44946L10.5793 5.98765L15.7598 6.71526L12.0112 10.2475L12.8959 15.235L8.2627 12.8797L3.62951 15.235L4.51416 10.2475L0.765625 6.71526L5.94611 5.98765L8.2627 1.44946Z" fill="#CD3A7D"/>
<path d="M88.7594 78.5101C88.0462 76.0669 86.4042 73.9748 84.1622 72.6529L83.5444 71.7572C80.0806 66.7499 74.6337 63.3452 68.4888 62.346C67.669 62.233 66.9095 62.7837 66.7925 63.5762C66.6795 64.3419 67.2083 65.0584 67.994 65.2043C72.4262 65.9316 76.4655 68.1082 79.436 71.3702C76.9385 71.8045 74.7543 73.2545 73.4383 75.3518C71.8235 78.1476 72.859 81.6793 75.7512 83.2403C78.6434 84.8014 82.2969 83.8004 83.9118 81.0046C84.5286 79.8536 84.8616 78.58 84.8849 77.2839C86.4803 79.5238 86.6079 82.449 85.2133 84.8108C84.7908 85.4993 85.0256 86.3885 85.7379 86.7969C86.4501 87.2053 87.37 86.9783 87.7924 86.2898C87.8059 86.2677 87.8189 86.2454 87.8312 86.2226C89.1935 83.8747 89.5276 81.0975 88.7594 78.5101ZM81.2968 79.5899C80.4965 80.9917 78.6722 81.5008 77.2223 80.7272C75.7722 79.9536 75.2455 78.1901 76.0458 76.7885C76.0503 76.7808 76.0548 76.7728 76.0593 76.765C76.9442 75.3645 78.4366 74.4256 80.1197 74.2111C80.3805 74.2042 80.6385 74.2622 80.8694 74.3792C82.135 75.0619 82.2024 78.0217 81.2968 79.5899Z" fill="#4FBA6F"/>
</svg>
