<svg width="36" height="87" viewBox="0 0 36 87" fill="none" xmlns="http://www.w3.org/2000/svg">
<path d="M15.8164 34.0503H19.3453V87.0001H15.8164V34.0503Z" fill="#4C8056"/>
<path d="M17.4369 0C17.4369 0 7.30193 7.73096 10.4622 26.2657H24.0066C24.0061 26.2657 27.7195 9.21834 17.4369 0Z" fill="#F9EAB0"/>
<path d="M18.0584 37.4256V37.5593C18.0584 37.5593 17.7267 37.5593 17.137 37.5593C16.8699 37.5593 16.5565 37.5058 16.2156 37.4613C12.6959 37.0159 5.27883 35.0477 4.34817 26.23C3.63858 18.7913 3.78394 11.2997 4.78127 3.89209C4.78127 3.89209 13.7095 6.56406 17.1368 19.4342C18.3624 23.9942 18.9244 29.8905 18.0584 37.4256Z" fill="#CD3A7D"/>
<path d="M18.0534 37.4259C17.7124 37.4259 17.3992 37.506 17.1319 37.5239C16.5514 37.5239 16.2105 37.5239 16.2105 37.5239V37.3902C15.3814 29.855 15.9065 23.9591 17.1319 19.363C18.3574 23.9944 18.9194 29.8908 18.0534 37.4259Z" fill="#F9EAB0"/>
<path d="M30.3906 3.8562C30.3906 3.8562 13.9256 8.76379 17.1228 37.559C17.1228 37.559 29.5983 37.7994 30.8237 26.1941C31.5276 18.7556 31.3826 11.2645 30.3906 3.8562Z" fill="#CD3A7D"/>
<path d="M18.7283 71.7873C18.7283 71.7873 21.8148 44.9426 0.660156 34.9939C0.659787 34.9943 2.2077 64.8046 18.7283 71.7873Z" fill="#4C8056"/>
<path d="M12.9959 58.5342C10.4573 51.9238 7.30239 45.5502 3.57031 39.4919C6.17595 43.2599 8.55405 47.1708 10.6926 51.2041C10.6104 48.8863 10.1854 46.5918 9.43042 44.3904C10.4222 46.8376 10.9948 49.4248 11.1259 52.0502C12.6738 55.019 14.0836 58.0474 15.3552 61.135L13.2822 49.9393L17.0137 65.3923C17.7325 67.3698 18.4235 69.3646 19.0409 71.3778L17.1982 71.8496C16.3414 68.4116 15.3555 65.0181 14.1301 61.6604C11.7677 57.4532 9.05605 53.4377 6.02192 49.6542C8.53669 52.4697 10.8662 55.4356 12.9959 58.5342Z" fill="#4FBA6F"/>
<path d="M17.2708 78.3783C17.2708 78.3783 14.1842 51.516 35.3389 41.585C35.3391 41.585 33.791 71.3956 17.2708 78.3783Z" fill="#4C8056"/>
<path d="M22.002 66.1253C24.5406 59.5148 27.6955 53.1413 31.4276 47.083C28.822 50.851 26.4439 54.7618 24.3053 58.7951C24.3893 56.4835 24.8143 54.1948 25.5675 51.9994C24.5775 54.441 24.005 57.0219 23.872 59.6412C22.3241 62.6101 20.9144 65.6384 19.6428 68.726L21.7157 57.5125L17.9842 73.0012C17.2654 74.9787 16.5745 76.9735 15.957 78.9867L17.7997 79.4585C18.6565 76.0205 19.6424 72.627 20.8678 69.2693C23.2293 65.0559 25.9411 61.0347 28.976 57.2454C26.461 60.0608 24.1315 63.0266 22.002 66.1253Z" fill="#4FBA6F"/>
</svg>
