<svg width="90" height="87" viewBox="0 0 90 87" fill="none" xmlns="http://www.w3.org/2000/svg">
<path d="M26.7977 7.2299L22.8408 2.9249C22.2703 2.30883 21.2917 2.25515 20.6529 2.8049L18.3253 4.7849C18.0925 4.9949 17.8753 5.2049 17.6891 5.39989C17.6127 5.47229 17.545 5.5528 17.4873 5.6399C15.2903 4.39006 12.7525 3.81467 10.2097 3.9899C9.71846 4.06541 9.31809 4.41139 9.18561 4.8749C8.70215 7.39138 9.03829 9.99088 10.1477 12.3149C9.32323 12.6844 8.55981 13.1696 7.88216 13.7549L6.73388 14.7449C6.09008 15.2973 6.02772 16.2483 6.59423 16.8749L11.746 22.4699C14.0559 24.9935 17.6336 26.0536 21.0097 25.2149C21.8942 27.5249 23.5856 30.5999 26.3787 31.4999H32.9068C33.7106 32.5499 34.5361 33.6179 35.4392 34.6949C35.7879 35.1115 36.3401 35.3167 36.8877 35.2331C37.4354 35.1496 37.8953 34.7899 38.0942 34.2896C38.2931 33.7894 38.2009 33.2246 37.8522 32.8079C36.6542 31.3799 35.5603 29.9354 34.5004 28.5374L34.5 29L39.6879 33.1631C41.8603 35.1631 47.8643 35.9911 50.0367 33.9911L55.5263 28.4999L55.4984 28.5374C54.4385 29.9354 53.3446 31.3874 52.1466 32.8079C51.6076 33.452 51.7108 34.3966 52.3771 34.9176C53.0434 35.4387 54.0205 35.339 54.5596 34.6949C55.4627 33.6179 56.2882 32.5529 57.092 31.4999H63.6201C66.4132 30.5999 68.1046 27.5249 68.9891 25.2149C72.3652 26.0536 75.9429 24.9935 78.2529 22.4699L83.4046 16.8749C83.9711 16.2483 83.9087 15.2973 83.2649 14.7449L82.1166 13.7549C81.439 13.1696 80.6756 12.6844 79.8511 12.3149C80.9605 9.99088 81.2967 7.39138 80.8132 4.8749C80.6807 4.41139 80.2803 4.06541 79.7891 3.9899C77.2463 3.81467 74.7085 4.39006 72.5115 5.6399C72.4538 5.5528 72.3861 5.47229 72.3097 5.39989C72.1235 5.2049 71.9063 4.9949 71.6735 4.7849L69.346 2.8049C68.7071 2.25515 67.7285 2.30883 67.158 2.9249L63.2011 7.2299H26.7977Z" fill="#4FBA6F"/>
<path d="M67.668 66.825L65.2008 68.685C64.6027 69.139 63.7508 69.1007 63.199 68.595C61.1162 66.8596 58.6631 65.5895 56.0145 64.875L55.8594 61.5L58.2025 59.25C61.7918 60.2828 65.0848 62.1055 67.8232 64.575C68.1329 64.8835 68.2929 65.3044 68.2633 65.7334C68.2337 66.1623 68.0174 66.559 67.668 66.825Z" fill="#FFFDFE"/>
<path d="M36.6474 35.25C36.1787 35.2503 35.7349 35.0457 35.4401 34.6935C34.1987 33.2115 33.0784 31.7355 31.9984 30.309C30.2069 27.6258 28.0173 25.2115 25.4998 23.1435C25.034 22.8355 24.7779 22.3073 24.8311 21.7641C24.8843 21.221 25.2384 20.7486 25.7557 20.5306C26.273 20.3125 26.872 20.3831 27.3199 20.715C30.1058 22.9593 32.5266 25.5958 34.5013 28.536C35.5612 29.934 36.6551 31.386 37.853 32.8065C38.2291 33.2559 38.3047 33.8741 38.0473 34.3958C37.7899 34.9175 37.2453 35.2498 36.6474 35.25Z" fill="#4C8056"/>
<path d="M53.3519 35.25C52.754 35.2498 52.2094 34.9175 51.952 34.3958C51.6945 33.8741 51.7701 33.2559 52.1462 32.8065C53.3441 31.3785 54.4381 29.934 55.4979 28.536C57.4726 25.5958 59.8935 22.9593 62.6793 20.715C63.1272 20.3831 63.7262 20.3125 64.2435 20.5306C64.7609 20.7486 65.1149 21.221 65.1681 21.7641C65.2213 22.3073 64.9653 22.8355 64.4995 23.1435C61.982 25.2115 59.7924 27.6258 58.0009 30.309C56.9147 31.7355 55.8021 33.2115 54.5591 34.6935C54.2643 35.0457 53.8206 35.2503 53.3519 35.25Z" fill="#4C8056"/>
<path d="M44.7849 43.7441C44.3619 44.1667 43.7418 44.3168 43.1909 44.13C42.64 43.9431 42.2563 43.4525 42.2045 42.8688C42.0418 41.012 41.7939 39.217 41.5548 37.4791C40.8721 34.0037 40.7196 30.4276 41.1025 26.8708C41.1846 26.3194 41.5582 25.8459 42.0782 25.6343C42.5982 25.4227 43.1826 25.5064 43.6042 25.8528C44.0259 26.1992 44.2183 26.7538 44.1068 27.301C43.7889 30.5434 43.9478 33.7988 44.5784 36.9629C44.819 38.7397 45.0759 40.5701 45.245 42.4969C45.2856 42.9545 45.1165 43.4128 44.7849 43.7441Z" fill="#4C8056"/>
<path d="M57.4137 82.5H52.9447L54.1395 84.825C54.3816 85.2893 54.3576 85.8416 54.0763 86.2847C53.7949 86.7278 53.2963 86.9984 52.7585 87H37.2413C36.7034 86.9984 36.2048 86.7278 35.9235 86.2847C35.6421 85.8416 35.6182 85.2893 35.8602 84.825L37.0551 82.5H32.5861C32.0483 82.4984 31.5497 82.2278 31.2683 81.7847C30.987 81.3416 30.963 80.7893 31.2051 80.325L37.8309 67.5L44.9999 64.5L52.1688 67.5L58.7947 80.325C59.0367 80.7893 59.0128 81.3416 58.7314 81.7847C58.4501 82.2278 57.9515 82.4984 57.4137 82.5Z" fill="url(#paint0_linear)"/>
<path d="M68.1068 33.675L56.8258 55.5L45.0016 58.5L33.1775 55.5L21.8965 33.675C21.6544 33.2107 21.6784 32.6584 21.9597 32.2153C22.2411 31.7722 22.7397 31.5016 23.2775 31.5H32.9292L32.7741 30.9L32.6344 30.36C32.5199 29.9125 32.6247 29.4389 32.9186 29.0758C33.2124 28.7127 33.6627 28.5004 34.1396 28.5C34.1396 28.5 38.722 31.5 44.8393 31.5C50.9566 31.5 55.8637 28.5 55.8637 28.5C56.3384 28.5061 56.7847 28.7199 57.0773 29.0814C57.3698 29.4429 57.477 29.9131 57.3689 30.36L57.2292 30.9L57.074 31.5H66.7258C67.2636 31.5016 67.7622 31.7722 68.0436 32.2153C68.3249 32.6584 68.3488 33.2107 68.1068 33.675Z" fill="url(#paint1_linear)"/>
<path d="M51.2078 23.2499C51.2432 25.2409 50.3961 27.1516 48.8802 28.4999C46.7078 30.4999 43.294 30.4999 41.1216 28.4999C39.6058 27.1516 38.7587 25.2409 38.794 23.2499C38.7895 22.2872 38.9847 21.3334 39.3682 20.4449C39.7824 19.4094 40.4731 18.4985 41.3699 17.8049C42.2495 18.8757 43.5865 19.4998 45.0009 19.4998C46.4153 19.4998 47.7524 18.8757 48.632 17.8049C49.5355 18.4923 50.2276 19.4051 50.6337 20.4449C51.0171 21.3334 51.2124 22.2872 51.2078 23.2499Z" fill="#CD3A7D"/>
<path d="M49.6537 14.9999C49.6622 17.2033 48.0248 19.091 45.7789 19.467C43.533 19.8431 41.3342 18.5977 40.5756 16.52C39.817 14.4422 40.72 12.1386 42.7125 11.0686C44.705 9.99861 47.2055 10.4746 48.6295 12.1949C49.2926 12.9893 49.6541 13.9793 49.6537 14.9999Z" fill="#F9EAB0"/>
<path d="M51.2068 6.75008C51.2114 7.71278 51.0161 8.66658 50.6327 9.55508C50.2266 10.5949 49.5345 11.5077 48.631 12.1951C47.7514 11.1243 46.4144 10.5002 44.9999 10.5002C43.5855 10.5002 42.2485 11.1243 41.3689 12.1951C40.4721 11.5015 39.7814 10.5906 39.3672 9.55508C38.9837 8.66658 38.7885 7.71278 38.793 6.75008C38.7935 5.70605 39.0208 4.67377 39.4603 3.72008V3.70508C40.3292 1.47593 42.5357 0.000244141 44.9999 0.000244141C47.4642 0.000244141 49.6707 1.47593 50.5396 3.70508C50.979 4.66405 51.2063 5.70122 51.2068 6.75008Z" fill="#CD3A7D"/>
<path d="M60.5151 15C60.5174 15.7226 60.3641 16.4377 60.0651 17.1C58.8909 19.5464 56.321 21.0806 53.5324 21C52.5365 21.0044 51.5498 20.8157 50.6306 20.445C50.2246 19.4052 49.5324 18.4924 48.6289 17.805C49.9945 16.168 49.9945 13.832 48.6289 12.195C49.5324 11.5076 50.2246 10.5948 50.6306 9.555C51.5498 9.18433 52.5365 8.99561 53.5324 9C56.1715 8.93536 58.6267 10.3015 59.8944 12.54C60.303 13.2998 60.5159 14.1437 60.5151 15Z" fill="#CD3A7D"/>
<path d="M40.3426 15C40.3422 16.0207 40.7036 17.0107 41.3667 17.805C40.4699 18.4986 39.7792 19.4095 39.365 20.445C38.4458 20.8157 37.4591 21.0044 36.4632 21C33.6746 21.0806 31.1047 19.5464 29.9305 17.1C29.6315 16.4377 29.4782 15.7226 29.4805 15C29.4797 14.1437 29.6926 13.2998 30.1012 12.54C31.3689 10.3015 33.8242 8.93536 36.4632 9C37.4591 8.99561 38.4458 9.18433 39.365 9.555C39.7792 10.5905 40.4699 11.5014 41.3667 12.195C40.7036 12.9893 40.3422 13.9793 40.3426 15Z" fill="#CD3A7D"/>
<path d="M29.4832 14.9999C29.481 15.7225 29.6343 16.4376 29.9332 17.0999C29.4472 18.6986 28.5063 20.1331 27.2177 21.2399L21.0264 14.5049C19.7791 13.1299 18.1193 12.1651 16.2781 11.7449L16.4022 11.3249C16.0764 9.0749 16.0298 7.3349 17.4884 5.6399C17.5461 5.5528 17.6138 5.47229 17.6901 5.3999C17.8764 5.2049 18.0936 4.9949 18.3264 4.7849L20.6539 2.8049C21.2928 2.25515 22.2714 2.30883 22.8419 2.9249L26.7988 7.2299L27.9936 8.5349C29.0407 9.67287 29.7674 11.052 30.1039 12.5399C29.6954 13.2997 29.4825 14.1436 29.4832 14.9999Z" fill="#CD3A7D"/>
<path d="M27.2166 21.24L24.8891 23.235C23.7836 24.1927 22.4513 24.8727 21.0097 25.215C17.6336 26.0537 14.0559 24.9936 11.746 22.47L6.59423 16.875C6.02772 16.2484 6.09008 15.2974 6.73388 14.745L7.88216 13.755C10.1652 11.7857 13.307 11.0335 16.277 11.745C18.1182 12.1652 19.778 13.13 21.0253 14.505L27.2166 21.24Z" fill="#CD3A7D"/>
<path d="M73.5963 11.3249L73.7204 11.7449C71.8792 12.1651 70.2194 13.1299 68.9721 14.5049L62.7807 21.2399C61.4922 20.1331 60.5512 18.6986 60.0652 17.0999C60.3642 16.4376 60.5175 15.7225 60.5152 14.9999C60.516 14.1436 60.3031 13.2997 59.8945 12.5399C60.2311 11.052 60.9578 9.67287 62.0049 8.5349L63.1997 7.2299L67.1566 2.9249C67.7271 2.30883 68.7057 2.25515 69.3445 2.8049L71.6721 4.7849C71.9049 4.9949 72.1221 5.2049 72.3083 5.3999C72.3847 5.47229 72.4524 5.5528 72.5101 5.6399C73.9687 7.3349 73.9221 9.0749 73.5963 11.3249Z" fill="#CD3A7D"/>
<path d="M83.4076 16.875L78.2558 22.47C75.9459 24.9936 72.3682 26.0537 68.992 25.215C67.5505 24.8727 66.2182 24.1927 65.1127 23.235L63.5921 21.93L62.7852 21.24L68.9765 14.505C70.2238 13.13 71.8836 12.1652 73.7248 11.745C76.6947 11.0335 79.8366 11.7857 82.1196 13.755L83.2679 14.745C83.9117 15.2974 83.9741 16.2484 83.4076 16.875Z" fill="#CD3A7D"/>
<path d="M39.4589 3.72039C39.0195 4.67408 38.7922 5.70637 38.7917 6.75039C38.7872 7.71309 38.9824 8.6669 39.3658 9.55539C38.4467 9.18472 37.46 8.996 36.4641 9.00039C33.825 8.93576 31.3697 10.3019 30.102 12.5404C29.7655 11.0525 29.0388 9.67336 27.9917 8.53539L26.7969 7.23039C27.3683 4.38004 29.0874 1.86575 31.5762 0.240392C31.8956 0.0483893 32.2738 -0.0310904 32.6469 0.0153916C35.3018 0.416019 37.7194 1.7256 39.4589 3.70539V3.72039Z" fill="#4FBA6F"/>
<path d="M63.2011 7.23039L62.0063 8.53539C60.9592 9.67336 60.2325 11.0525 59.896 12.5404C58.6283 10.3019 56.173 8.93576 53.5339 9.00039C52.538 8.996 51.5513 9.18472 50.6322 9.55539C51.0156 8.6669 51.2108 7.71309 51.2063 6.75039C51.2058 5.70637 50.9785 4.67408 50.5391 3.72039V3.70539C52.2786 1.7256 54.6962 0.416019 57.3511 0.0153916C57.7242 -0.0310904 58.1024 0.0483893 58.4218 0.240392C60.9106 1.86575 62.6297 4.38004 63.2011 7.23039Z" fill="#4FBA6F"/>
<path d="M50.5411 3.70508L50.5234 3.72174L50.5411 3.70508Z" fill="#CD3A7D"/>
<path d="M36.6516 46.14C36.7496 46.528 36.6835 46.9377 36.4679 47.2783C36.2524 47.619 35.9052 47.8626 35.5033 47.955C35.3868 47.9847 35.2669 47.9998 35.1464 48C34.4333 47.9995 33.8124 47.5292 33.6412 46.86L29.8395 31.86C29.8088 31.7423 29.7931 31.6214 29.793 31.5H32.9274L36.6516 46.14Z" fill="#C53878"/>
<path d="M60.2076 31.5C60.2074 31.6214 60.1918 31.7423 60.161 31.86L56.3593 46.86C56.1882 47.5292 55.5672 47.9995 54.8541 48C54.7337 47.9998 54.6137 47.9847 54.4972 47.955C54.0953 47.8626 53.7482 47.619 53.5326 47.2783C53.3171 46.9377 53.251 46.528 53.349 46.14L57.0731 31.5H60.2076Z" fill="#C53878"/>
<path d="M39.0414 78.6899L37.0241 82.4999H33.7345C33.7317 82.2598 33.7904 82.0228 33.9052 81.8099L36.2793 77.3099C36.6735 76.5726 37.6114 76.2838 38.3741 76.6649C39.1368 77.046 39.4356 77.9526 39.0414 78.6899Z" fill="#C53878"/>
<path d="M56.2656 82.5001H52.976L50.9587 78.6901C50.7037 78.2131 50.7313 77.6409 51.0311 77.1889C51.3309 76.737 51.8573 76.474 52.4121 76.4989C52.9669 76.5239 53.4658 76.8331 53.7208 77.3101L56.0949 81.8101C56.2097 82.023 56.2684 82.26 56.2656 82.5001Z" fill="#C53878"/>
<path d="M58.8703 57.525L58.2031 59.25L56.0152 64.875L55.379 66.525C55.1491 67.1111 54.5687 67.499 53.9203 67.5H36.0755C35.4271 67.499 34.8467 67.1111 34.6169 66.525L31.1255 57.525C30.9472 57.0636 31.0145 56.5471 31.3056 56.1429C31.5968 55.7387 32.0746 55.4984 32.5841 55.5H57.4117C57.9212 55.4984 58.3991 55.7387 58.6902 56.1429C58.9813 56.5471 59.0487 57.0636 58.8703 57.525Z" fill="#F9EAB0"/>
<path d="M48.1024 63H41.8955C41.0385 63 40.3438 62.3284 40.3438 61.5C40.3438 60.6716 41.0385 60 41.8955 60H48.1024C48.9594 60 49.6541 60.6716 49.6541 61.5C49.6541 62.3284 48.9594 63 48.1024 63Z" fill="#D76197"/>
<defs>
<linearGradient id="paint0_linear" x1="44.9999" y1="64.5" x2="44.9999" y2="87" gradientUnits="userSpaceOnUse">
<stop stop-color="#F9EAB0"/>
<stop offset="0.234375" stop-color="#CD3A7D"/>
</linearGradient>
<linearGradient id="paint1_linear" x1="45.0016" y1="28.5" x2="45.0016" y2="58.5" gradientUnits="userSpaceOnUse">
<stop offset="0.817708" stop-color="#CD3A7D"/>
<stop offset="1" stop-color="#F9EAB0"/>
</linearGradient>
</defs>
</svg>
