<svg width="78" height="87" viewBox="0 0 78 87" fill="none" xmlns="http://www.w3.org/2000/svg">
<path d="M20.7977 7.2299L16.8408 2.9249C16.2703 2.30883 15.2917 2.25515 14.6529 2.8049L12.3253 4.7849C12.0925 4.9949 11.8753 5.2049 11.6891 5.39989C11.6127 5.47229 11.545 5.5528 11.4873 5.6399C9.29034 4.39006 6.7525 3.81467 4.20975 3.9899C3.71846 4.06541 3.31809 4.41139 3.18561 4.8749C2.70215 7.39138 3.03829 9.99088 4.14768 12.3149C3.32323 12.6844 2.55981 13.1696 1.88216 13.7549L0.733884 14.7449C0.0900757 15.2973 0.0277231 16.2483 0.594229 16.8749L5.74595 22.4699C8.0559 24.9935 11.6336 26.0536 15.0097 25.2149C15.8942 27.5249 17.5856 30.5999 20.3787 31.4999H26.9068C27.7106 32.5499 28.5361 33.6179 29.4392 34.6949C29.7879 35.1115 30.3401 35.3167 30.8877 35.2331C31.4354 35.1496 31.8953 34.7899 32.0942 34.2896C32.2931 33.7894 32.2009 33.2246 31.8522 32.8079C30.6542 31.3799 29.5603 29.9354 28.5004 28.5374L28.5 29L33.6879 33.1631C35.8603 35.1631 41.8643 35.9911 44.0367 33.9911L49.5263 28.4999L49.4984 28.5374C48.4385 29.9354 47.3446 31.3874 46.1466 32.8079C45.6076 33.452 45.7108 34.3966 46.3771 34.9176C47.0434 35.4387 48.0205 35.339 48.5596 34.6949C49.4627 33.6179 50.2882 32.5529 51.092 31.4999H57.6201C60.4132 30.5999 62.1046 27.5249 62.9891 25.2149C66.3652 26.0536 69.9429 24.9935 72.2529 22.4699L77.4046 16.8749C77.9711 16.2483 77.9087 15.2973 77.2649 14.7449L76.1166 13.7549C75.439 13.1696 74.6756 12.6844 73.8511 12.3149C74.9605 9.99088 75.2967 7.39138 74.8132 4.8749C74.6807 4.41139 74.2803 4.06541 73.7891 3.9899C71.2463 3.81467 68.7085 4.39006 66.5115 5.6399C66.4538 5.5528 66.3861 5.47229 66.3097 5.39989C66.1235 5.2049 65.9063 4.9949 65.6735 4.7849L63.346 2.8049C62.7071 2.25515 61.7285 2.30883 61.158 2.9249L57.2011 7.2299H20.7977Z" fill="#4FBA6F"/>
<path d="M61.668 66.825L59.2008 68.685C58.6027 69.139 57.7508 69.1007 57.199 68.595C55.1162 66.8596 52.6631 65.5895 50.0145 64.875L49.8594 61.5L52.2025 59.25C55.7918 60.2828 59.0848 62.1055 61.8232 64.575C62.1329 64.8835 62.2929 65.3044 62.2633 65.7334C62.2337 66.1623 62.0174 66.559 61.668 66.825Z" fill="#FFFDFE"/>
<path d="M30.6474 35.25C30.1787 35.2503 29.7349 35.0457 29.4401 34.6935C28.1987 33.2115 27.0784 31.7355 25.9984 30.309C24.2069 27.6258 22.0173 25.2115 19.4998 23.1435C19.034 22.8355 18.7779 22.3073 18.8311 21.7641C18.8843 21.221 19.2384 20.7486 19.7557 20.5306C20.273 20.3125 20.872 20.3831 21.3199 20.715C24.1058 22.9593 26.5266 25.5958 28.5013 28.536C29.5612 29.934 30.6551 31.386 31.853 32.8065C32.2291 33.2559 32.3047 33.8741 32.0473 34.3958C31.7899 34.9175 31.2453 35.2498 30.6474 35.25Z" fill="#4C8056"/>
<path d="M47.3519 35.25C46.754 35.2498 46.2094 34.9175 45.952 34.3958C45.6945 33.8741 45.7701 33.2559 46.1462 32.8065C47.3441 31.3785 48.4381 29.934 49.4979 28.536C51.4726 25.5958 53.8935 22.9593 56.6793 20.715C57.1272 20.3831 57.7262 20.3125 58.2435 20.5306C58.7609 20.7486 59.1149 21.221 59.1681 21.7641C59.2213 22.3073 58.9653 22.8355 58.4995 23.1435C55.982 25.2115 53.7924 27.6258 52.0009 30.309C50.9147 31.7355 49.8021 33.2115 48.5591 34.6935C48.2643 35.0457 47.8206 35.2503 47.3519 35.25Z" fill="#4C8056"/>
<path d="M38.7849 43.7441C38.3619 44.1667 37.7418 44.3168 37.1909 44.13C36.64 43.9431 36.2563 43.4525 36.2045 42.8688C36.0418 41.012 35.7939 39.217 35.5548 37.4791C34.8721 34.0037 34.7196 30.4276 35.1025 26.8708C35.1846 26.3194 35.5582 25.8459 36.0782 25.6343C36.5982 25.4227 37.1826 25.5064 37.6042 25.8528C38.0259 26.1992 38.2183 26.7538 38.1068 27.301C37.7889 30.5434 37.9478 33.7988 38.5784 36.9629C38.819 38.7397 39.0759 40.5701 39.245 42.4969C39.2856 42.9545 39.1165 43.4128 38.7849 43.7441Z" fill="#4C8056"/>
<path d="M51.4137 82.5H46.9447L48.1395 84.825C48.3816 85.2893 48.3576 85.8416 48.0763 86.2847C47.7949 86.7278 47.2963 86.9984 46.7585 87H31.2413C30.7034 86.9984 30.2048 86.7278 29.9235 86.2847C29.6421 85.8416 29.6182 85.2893 29.8602 84.825L31.0551 82.5H26.5861C26.0483 82.4984 25.5497 82.2278 25.2683 81.7847C24.987 81.3416 24.963 80.7893 25.2051 80.325L31.8309 67.5L38.9999 64.5L46.1688 67.5L52.7947 80.325C53.0367 80.7893 53.0128 81.3416 52.7314 81.7847C52.4501 82.2278 51.9515 82.4984 51.4137 82.5Z" fill="url(#paint0_linear)"/>
<path d="M62.1068 33.675L50.8258 55.5L39.0016 58.5L27.1775 55.5L15.8965 33.675C15.6544 33.2107 15.6784 32.6584 15.9597 32.2153C16.2411 31.7722 16.7397 31.5016 17.2775 31.5H26.9292L26.7741 30.9L26.6344 30.36C26.5199 29.9125 26.6247 29.4389 26.9186 29.0758C27.2124 28.7127 27.6627 28.5004 28.1396 28.5C28.1396 28.5 32.722 31.5 38.8393 31.5C44.9566 31.5 49.8637 28.5 49.8637 28.5C50.3384 28.5061 50.7847 28.7199 51.0773 29.0814C51.3698 29.4429 51.477 29.9131 51.3689 30.36L51.2292 30.9L51.074 31.5H60.7258C61.2636 31.5016 61.7622 31.7722 62.0436 32.2153C62.3249 32.6584 62.3488 33.2107 62.1068 33.675Z" fill="url(#paint1_linear)"/>
<path d="M45.2078 23.2499C45.2432 25.2409 44.3961 27.1516 42.8802 28.4999C40.7078 30.4999 37.294 30.4999 35.1216 28.4999C33.6058 27.1516 32.7587 25.2409 32.794 23.2499C32.7895 22.2872 32.9847 21.3334 33.3682 20.4449C33.7824 19.4094 34.4731 18.4985 35.3699 17.8049C36.2495 18.8757 37.5865 19.4998 39.0009 19.4998C40.4153 19.4998 41.7524 18.8757 42.632 17.8049C43.5355 18.4923 44.2276 19.4051 44.6337 20.4449C45.0171 21.3334 45.2124 22.2872 45.2078 23.2499Z" fill="#CD3A7D"/>
<path d="M43.6537 14.9999C43.6622 17.2033 42.0248 19.091 39.7789 19.467C37.533 19.8431 35.3342 18.5977 34.5756 16.52C33.817 14.4422 34.72 12.1386 36.7125 11.0686C38.705 9.99861 41.2055 10.4746 42.6295 12.1949C43.2926 12.9893 43.6541 13.9793 43.6537 14.9999Z" fill="#F9EAB0"/>
<path d="M45.2068 6.75008C45.2114 7.71278 45.0161 8.66658 44.6327 9.55508C44.2266 10.5949 43.5345 11.5077 42.631 12.1951C41.7514 11.1243 40.4144 10.5002 38.9999 10.5002C37.5855 10.5002 36.2485 11.1243 35.3689 12.1951C34.4721 11.5015 33.7814 10.5906 33.3672 9.55508C32.9837 8.66658 32.7885 7.71278 32.793 6.75008C32.7935 5.70605 33.0208 4.67377 33.4603 3.72008V3.70508C34.3292 1.47593 36.5357 0.000244141 38.9999 0.000244141C41.4642 0.000244141 43.6707 1.47593 44.5396 3.70508C44.979 4.66405 45.2063 5.70122 45.2068 6.75008Z" fill="#CD3A7D"/>
<path d="M54.5151 15C54.5174 15.7226 54.3641 16.4377 54.0651 17.1C52.8909 19.5464 50.321 21.0806 47.5324 21C46.5365 21.0044 45.5498 20.8157 44.6306 20.445C44.2246 19.4052 43.5324 18.4924 42.6289 17.805C43.9945 16.168 43.9945 13.832 42.6289 12.195C43.5324 11.5076 44.2246 10.5948 44.6306 9.555C45.5498 9.18433 46.5365 8.99561 47.5324 9C50.1715 8.93536 52.6267 10.3015 53.8944 12.54C54.303 13.2998 54.5159 14.1437 54.5151 15Z" fill="#CD3A7D"/>
<path d="M34.3426 15C34.3422 16.0207 34.7036 17.0107 35.3667 17.805C34.4699 18.4986 33.7792 19.4095 33.365 20.445C32.4458 20.8157 31.4591 21.0044 30.4632 21C27.6746 21.0806 25.1047 19.5464 23.9305 17.1C23.6315 16.4377 23.4782 15.7226 23.4805 15C23.4797 14.1437 23.6926 13.2998 24.1012 12.54C25.3689 10.3015 27.8242 8.93536 30.4632 9C31.4591 8.99561 32.4458 9.18433 33.365 9.555C33.7792 10.5905 34.4699 11.5014 35.3667 12.195C34.7036 12.9893 34.3422 13.9793 34.3426 15Z" fill="#CD3A7D"/>
<path d="M23.4832 14.9999C23.481 15.7225 23.6343 16.4376 23.9332 17.0999C23.4472 18.6986 22.5063 20.1331 21.2177 21.2399L15.0264 14.5049C13.7791 13.1299 12.1193 12.1651 10.2781 11.7449L10.4022 11.3249C10.0764 9.0749 10.0298 7.3349 11.4884 5.6399C11.5461 5.5528 11.6138 5.47229 11.6901 5.3999C11.8764 5.2049 12.0936 4.9949 12.3264 4.7849L14.6539 2.8049C15.2928 2.25515 16.2714 2.30883 16.8419 2.9249L20.7988 7.2299L21.9936 8.5349C23.0407 9.67287 23.7674 11.052 24.1039 12.5399C23.6954 13.2997 23.4825 14.1436 23.4832 14.9999Z" fill="#CD3A7D"/>
<path d="M21.2166 21.24L18.8891 23.235C17.7836 24.1927 16.4513 24.8727 15.0097 25.215C11.6336 26.0537 8.0559 24.9936 5.74595 22.47L0.594229 16.875C0.0277231 16.2484 0.0900757 15.2974 0.733884 14.745L1.88216 13.755C4.16521 11.7857 7.30704 11.0335 10.277 11.745C12.1182 12.1652 13.778 13.13 15.0253 14.505L21.2166 21.24Z" fill="#CD3A7D"/>
<path d="M67.5963 11.3249L67.7204 11.7449C65.8792 12.1651 64.2194 13.1299 62.9721 14.5049L56.7807 21.2399C55.4922 20.1331 54.5512 18.6986 54.0652 17.0999C54.3642 16.4376 54.5175 15.7225 54.5152 14.9999C54.516 14.1436 54.3031 13.2997 53.8945 12.5399C54.2311 11.052 54.9578 9.67287 56.0049 8.5349L57.1997 7.2299L61.1566 2.9249C61.7271 2.30883 62.7057 2.25515 63.3445 2.8049L65.6721 4.7849C65.9049 4.9949 66.1221 5.2049 66.3083 5.3999C66.3847 5.47229 66.4524 5.5528 66.5101 5.6399C67.9687 7.3349 67.9221 9.0749 67.5963 11.3249Z" fill="#CD3A7D"/>
<path d="M77.4076 16.875L72.2558 22.47C69.9459 24.9936 66.3682 26.0537 62.992 25.215C61.5505 24.8727 60.2182 24.1927 59.1127 23.235L57.5921 21.93L56.7852 21.24L62.9765 14.505C64.2238 13.13 65.8836 12.1652 67.7248 11.745C70.6947 11.0335 73.8366 11.7857 76.1196 13.755L77.2679 14.745C77.9117 15.2974 77.9741 16.2484 77.4076 16.875Z" fill="#CD3A7D"/>
<path d="M33.4589 3.72039C33.0195 4.67408 32.7922 5.70637 32.7917 6.75039C32.7872 7.71309 32.9824 8.6669 33.3658 9.55539C32.4467 9.18472 31.46 8.996 30.4641 9.00039C27.825 8.93576 25.3697 10.3019 24.102 12.5404C23.7655 11.0525 23.0388 9.67336 21.9917 8.53539L20.7969 7.23039C21.3683 4.38004 23.0874 1.86575 25.5762 0.240392C25.8956 0.0483893 26.2738 -0.0310904 26.6469 0.0153916C29.3018 0.416019 31.7194 1.7256 33.4589 3.70539V3.72039Z" fill="#4FBA6F"/>
<path d="M57.2011 7.23039L56.0063 8.53539C54.9592 9.67336 54.2325 11.0525 53.896 12.5404C52.6283 10.3019 50.173 8.93576 47.5339 9.00039C46.538 8.996 45.5513 9.18472 44.6322 9.55539C45.0156 8.6669 45.2108 7.71309 45.2063 6.75039C45.2058 5.70637 44.9785 4.67408 44.5391 3.72039V3.70539C46.2786 1.7256 48.6962 0.416019 51.3511 0.0153916C51.7242 -0.0310904 52.1024 0.0483893 52.4218 0.240392C54.9106 1.86575 56.6297 4.38004 57.2011 7.23039Z" fill="#4FBA6F"/>
<path d="M44.5411 3.70508L44.5234 3.72174L44.5411 3.70508Z" fill="#CD3A7D"/>
<path d="M30.6516 46.14C30.7496 46.528 30.6835 46.9377 30.4679 47.2783C30.2524 47.619 29.9052 47.8626 29.5033 47.955C29.3868 47.9847 29.2669 47.9998 29.1464 48C28.4333 47.9995 27.8124 47.5292 27.6412 46.86L23.8395 31.86C23.8088 31.7423 23.7931 31.6214 23.793 31.5H26.9274L30.6516 46.14Z" fill="#C53878"/>
<path d="M54.2076 31.5C54.2074 31.6214 54.1918 31.7423 54.161 31.86L50.3593 46.86C50.1882 47.5292 49.5672 47.9995 48.8541 48C48.7337 47.9998 48.6137 47.9847 48.4972 47.955C48.0953 47.8626 47.7482 47.619 47.5326 47.2783C47.3171 46.9377 47.251 46.528 47.349 46.14L51.0731 31.5H54.2076Z" fill="#C53878"/>
<path d="M33.0414 78.6899L31.0241 82.4999H27.7345C27.7317 82.2598 27.7904 82.0228 27.9052 81.8099L30.2793 77.3099C30.6735 76.5726 31.6114 76.2838 32.3741 76.6649C33.1368 77.046 33.4356 77.9526 33.0414 78.6899Z" fill="#C53878"/>
<path d="M50.2656 82.5001H46.976L44.9587 78.6901C44.7037 78.2131 44.7313 77.6409 45.0311 77.1889C45.3309 76.737 45.8573 76.474 46.4121 76.4989C46.9669 76.5239 47.4658 76.8331 47.7208 77.3101L50.0949 81.8101C50.2097 82.023 50.2684 82.26 50.2656 82.5001Z" fill="#C53878"/>
<path d="M52.8703 57.525L52.2031 59.25L50.0152 64.875L49.379 66.525C49.1491 67.1111 48.5687 67.499 47.9203 67.5H30.0755C29.4271 67.499 28.8467 67.1111 28.6169 66.525L25.1255 57.525C24.9472 57.0636 25.0145 56.5471 25.3056 56.1429C25.5968 55.7387 26.0746 55.4984 26.5841 55.5H51.4117C51.9212 55.4984 52.3991 55.7387 52.6902 56.1429C52.9813 56.5471 53.0487 57.0636 52.8703 57.525Z" fill="#F9EAB0"/>
<path d="M42.1024 63H35.8955C35.0385 63 34.3438 62.3284 34.3438 61.5C34.3438 60.6716 35.0385 60 35.8955 60H42.1024C42.9594 60 43.6541 60.6716 43.6541 61.5C43.6541 62.3284 42.9594 63 42.1024 63Z" fill="#D76197"/>
<defs>
<linearGradient id="paint0_linear" x1="38.9999" y1="64.5" x2="38.9999" y2="87" gradientUnits="userSpaceOnUse">
<stop stop-color="#F9EAB0"/>
<stop offset="0.234375" stop-color="#CD3A7D"/>
</linearGradient>
<linearGradient id="paint1_linear" x1="39.0016" y1="28.5" x2="39.0016" y2="58.5" gradientUnits="userSpaceOnUse">
<stop offset="0.817708" stop-color="#CD3A7D"/>
<stop offset="1" stop-color="#F9EAB0"/>
</linearGradient>
</defs>
</svg>
