<svg width="26" height="24" viewBox="0 0 26 24" fill="none" xmlns="http://www.w3.org/2000/svg">
<path d="M12.8127 23.992C19.6257 23.992 25.1488 18.6242 25.1488 12.0026C25.1488 5.38103 19.6257 0.0131836 12.8127 0.0131836C5.99962 0.0131836 0.476562 5.38103 0.476562 12.0026C0.476562 18.6242 5.99962 23.992 12.8127 23.992Z" fill="url(#paint0_linear)"/>
<path d="M6.12449 11.7421L18.0185 7.28502C18.5706 7.09119 19.0527 7.4159 18.8738 8.22719L18.8749 8.22619L16.8497 17.499C16.6996 18.1564 16.2977 18.3163 15.7353 18.0066L12.6513 15.7975L11.1638 17.1903C10.9993 17.3501 10.8605 17.485 10.5418 17.485L10.7608 14.4347L16.4765 9.41614C16.7253 9.20333 16.421 9.08343 16.0931 9.29525L9.02964 13.6174L5.98468 12.6942C5.32367 12.4904 5.30928 12.0518 6.12449 11.7421Z" fill="white"/>
<defs>
<linearGradient id="paint0_linear" x1="12.8127" y1="0.0131836" x2="12.8127" y2="23.992" gradientUnits="userSpaceOnUse">
<stop offset="0.9998" stop-color="#CD3A7D"/>
<stop offset="0.9999" stop-color="#DB71A2"/>
<stop offset="1" stop-color="#CD3A7D"/>
</linearGradient>
</defs>
</svg>
