<svg width="23" height="24" viewBox="0 0 23 24" fill="none" xmlns="http://www.w3.org/2000/svg">
<path d="M22.7744 13.894C23.4941 7.87226 22.4286 4.07062 20.5067 2.35113L20.5077 2.35014C17.4058 -0.586275 6.92996 -1.02089 3.2189 2.48202C1.55233 4.19551 0.965319 6.71029 0.900989 9.82354C0.836658 12.9378 0.760266 18.7717 6.22936 20.3543H6.23439L6.22936 22.7711C6.22936 22.7711 6.19217 23.7503 6.8214 23.9471C7.5411 24.1789 7.86677 23.7243 10.1053 21.0666C13.8485 21.3893 16.7233 20.65 17.05 20.5421C17.8058 20.2903 22.0828 19.7278 22.7744 13.894ZM10.4742 19.3661C10.4742 19.3661 8.105 22.3025 7.36821 23.0649C7.12697 23.3126 6.86262 23.2897 6.86664 22.7981C6.86664 22.4754 6.88473 18.7856 6.88473 18.7856C2.24791 17.4648 2.52131 12.4972 2.57157 9.89848C2.62183 7.29877 3.10029 5.16965 4.51154 3.73591C7.76726 0.70159 16.9514 1.37999 19.2915 3.56606C22.1522 6.08684 21.1339 13.2086 21.14 13.4513C20.5519 18.321 17.0861 18.6298 16.4489 18.8406C16.1765 18.9305 13.6485 19.5769 10.4742 19.3661Z" fill="#CD3A7D"/>
<path d="M11.7824 4.30615C11.3954 4.30615 11.3954 4.90562 11.7824 4.91062C14.7849 4.9336 17.2576 7.01376 17.2847 10.8294C17.2847 11.232 17.8777 11.227 17.8727 10.8244H17.8717C17.8395 6.71303 15.1397 4.32913 11.7824 4.30615Z" fill="#CD3A7D"/>
<path d="M15.7345 10.1965C15.7255 10.5942 16.3175 10.6132 16.3225 10.2105C16.3718 7.94354 14.9656 6.07619 12.323 5.87936C11.936 5.85138 11.8958 6.45585 12.2818 6.48383C14.5736 6.65667 15.7808 8.2113 15.7345 10.1965Z" fill="#CD3A7D"/>
<path d="M15.0975 12.776C14.601 12.4903 14.0954 12.6681 13.8863 12.9489L13.449 13.5114C13.2269 13.7971 12.8118 13.7592 12.8118 13.7592C9.78221 12.9629 8.97205 9.81165 8.97205 9.81165C8.97205 9.81165 8.93486 9.38502 9.21228 9.15623L9.75909 8.70662C10.0325 8.49081 10.2054 7.97127 9.92695 7.46072C9.18313 6.1249 8.68356 5.66431 8.42926 5.31062C8.16188 4.97791 7.75982 4.90298 7.34167 5.12778H7.33262C6.46316 5.63333 5.51127 6.5795 5.81583 7.55364C6.3355 8.58073 7.29041 11.8548 10.334 14.3287C11.7644 15.4986 14.028 16.6976 14.989 16.9743L14.998 16.9883C15.9449 17.302 16.8656 16.3189 17.3571 15.4287V15.4217C17.5752 14.9911 17.5029 14.5834 17.1842 14.3167C16.6193 13.7692 15.767 13.1647 15.0975 12.776Z" fill="#CD3A7D"/>
<path d="M12.7372 13.777C13.7031 13.8329 14.1715 14.3345 14.2218 15.3646C14.2399 15.7672 14.8279 15.7392 14.8098 15.3366C14.7455 13.9918 14.0399 13.2425 12.7693 13.1725C12.3823 13.1495 12.3462 13.754 12.7372 13.777Z" fill="#CD3A7D"/>
</svg>
